<?xml version="1.0" encoding="UTF-8"?><svg id="Layer_1" xmlns="http://www.w3.org/2000/svg" viewBox="0 0 46.01 45.85"><defs><style>.cls-1{fill:#bec5ae;}.cls-2{fill:none;stroke:#535153;stroke-linecap:round;stroke-linejoin:round;stroke-width:1.7px;}</style></defs><path class="cls-1" d="m16.32,4.3s1.06-.77,2.38-1.25c1.98-.77,7.38-2.74,12.69,1.29l4.58,6.7,3.14-1.81-3.38,10.64-10.9-2.39,3.31-1.91-2.88-4.99s-2.84-5.8-8.95-6.27"/><path class="cls-1" d="m10.05,41.32s-1.2-.53-2.28-1.44c-1.66-1.33-6.06-5.02-5.22-11.63l3.51-7.32s-3.14-1.81-3.14-1.81l10.9-2.39,3.38,10.64-3.31-1.91-2.88,4.99s-3.6,5.36-.96,10.88"/><path class="cls-1" d="m45.97,28.58s.14,1.31-.11,2.69c-.32,2.1-1.32,7.76-7.46,10.34l-8.1.62v3.63l-7.52-8.25,7.52-8.24v3.83h5.76s6.44.44,9.91-4.61"/><path class="cls-2" d="m14.85,3.29s1.08-.78,2.41-1.26c2-.78,7.45-2.77,12.81,1.3l4.62,6.76,3.17-1.83-3.41,10.74-11-2.41,3.34-1.93-2.91-5.04s-2.86-5.86-9.03-6.33m0,0c-.78.8-4.67,6.99-4.67,6.99l7.82,4.55,4.45-7.33s-2.65-3.74-7.6-4.21h0Zm-6.32,37.37s-1.21-.54-2.3-1.45c-1.67-1.34-6.12-5.07-5.27-11.74l3.55-7.39s-3.17-1.83-3.17-1.83l11-2.41,3.41,10.74-3.34-1.93-2.91,5.04s-3.64,5.41-.97,10.99m0,0c1.08.28,8.38.55,8.38.55l.03-9.05-8.58-.19s-1.92,4.17.16,8.69h0Zm35.63-13.18s.14,1.32-.11,2.71c-.32,2.12-1.33,7.84-7.53,10.44l-8.17.62v3.66l-7.59-8.32,7.59-8.32v3.86h5.81s6.5.45,10-4.66m0,0c-.3-1.08-3.72-7.54-3.72-7.54l-7.85,4.49,4.12,7.52s4.57-.43,7.45-4.48h0Z"/></svg>