<?xml version="1.0" encoding="UTF-8"?><svg id="Layer_1" xmlns="http://www.w3.org/2000/svg" viewBox="0 0 35.55 45.76"><defs><style>.cls-1{fill:none;stroke:#535153;stroke-linecap:round;stroke-linejoin:round;stroke-width:1.51px;}.cls-2{fill:#bec5ae;}</style></defs><path class="cls-2" d="m29.26,13.65C19.95,2.1,19.58,0,19.58,0c0,0-.37,2.1-9.68,13.65,0,0-9.93,9.93-4.83,20.91h0c2.33,5.72,7.94,9.76,14.5,9.76s12.17-4.04,14.5-9.76h0c5.1-10.97-4.83-20.91-4.83-20.91h0Z"/><path class="cls-1" d="m26.25,14.51C17,3.03,16.63.94,16.63.94c0,0-.37,2.09-9.62,13.57,0,0-9.87,9.88-4.8,20.79h0c2.32,5.69,7.9,9.7,14.42,9.7s12.11-4.01,14.42-9.7h0c5.08-10.91-4.8-20.79-4.8-20.79h0Zm-9.62,24.73c-6.11,0-11.07-4.95-11.07-11.07"/></svg>