<?xml version="1.0" encoding="UTF-8"?><svg id="Layer_1" xmlns="http://www.w3.org/2000/svg" viewBox="0 0 48.97 45.86"><defs><style>.cls-1{fill:#bec5ae;}.cls-2{fill:none;stroke:#535153;stroke-linecap:round;stroke-linejoin:round;stroke-width:1.72px;}</style></defs><path class="cls-1" d="m34.28,4.59c-4.27.03-8.27-3.07-15.93-.57,0,0-7.02,2.55-10.04,12.78,0,0,10.51,2.69,15.74-.16,6.96-3.28,10.2-12.05,10.23-12.05h0Z"/><path class="cls-1" d="m0,27.94c2.16,3.68,1.48,8.69,7.47,14.08,0,0,5.72,4.81,16.09,2.31,0,0-2.92-10.45-8.01-13.56C9.23,26.38.01,27.96,0,27.94h0Z"/><path class="cls-1" d="m38.31,45.86c2.11-3.72,6.79-5.63,8.46-13.51,0,0,1.3-7.36-6.04-15.09,0,0-7.59,7.75-7.74,13.71-.64,7.67,5.33,14.86,5.32,14.88h0Z"/><path class="cls-2" d="m35.53,2.4c-4.27.03-8.27-3.07-15.93-.57,0,0-7.02,2.55-10.04,12.78,0,0,10.51,2.69,15.75-.15,6.96-3.28,10.2-12.05,10.23-12.05h0Zm-7.41,3.62s-15.94,1.62-22.55,13.8m-4.32,5.92c2.16,3.68,1.48,8.69,7.47,14.08,0,0,5.72,4.81,16.09,2.31,0,0-2.92-10.45-8.01-13.56-6.32-4.39-15.54-2.81-15.55-2.83h0Zm6.84,4.6s9.38,12.99,23.23,12.63m8.25.69c2.11-3.71,6.79-5.63,8.46-13.51,0,0,1.3-7.36-6.04-15.09,0,0-7.59,7.75-7.74,13.71-.64,7.67,5.33,14.86,5.32,14.88h0Zm.57-8.22s6.56-14.62-.68-26.43"/></svg>