<?xml version="1.0" encoding="UTF-8"?><svg id="Layer_1" xmlns="http://www.w3.org/2000/svg" viewBox="0 0 42.6 45.79"><defs><style>.cls-1{fill:#bec5ae;}.cls-2{fill:none;stroke:#535153;stroke-linecap:round;stroke-linejoin:round;stroke-width:1.58px;}</style></defs><path class="cls-1" d="m37.54,10.26c-1.5,2.64-4.83,4-6.02,9.61,0,0-.93,5.23,4.3,10.73,0,0,5.4-5.52,5.51-9.76.46-5.46-3.8-10.57-3.79-10.59h0Z"/><polygon class="cls-1" points="10.01 8.09 5.72 8.09 5.72 .48 10.01 .48 10.01 8.09 10.01 8.09"/><polygon class="cls-1" points="21.3 7.71 16.67 7.71 16.67 0 21.3 0 21.3 7.71 21.3 7.71"/><path class="cls-1" d="m16.51,28.19h-4.62c-4.19,0-7.58-3.39-7.58-7.58v-7.93h19.78v7.93c0,4.19-3.39,7.58-7.58,7.58h0Z"/><path class="cls-2" d="m35.41,9.32s-14.4,10.44,0,20.92c14.4-10.48,0-20.92,0-20.92h0ZM14.43,29.1h-4.62c-4.19,0-7.58-3.39-7.58-7.58v-7.93h19.78v7.93c0,4.19-3.39,7.58-7.58,7.58h0Zm-5.83-19.79h-4.18V1.97h4.18v7.35h0Zm11.22,0h-4.18V1.97h4.18v7.35h0Zm3.63,0H.79v4.27h22.65v-4.27h0Zm-9.24,22.67h-4.19v-2.89h4.19v2.89h0Zm21.21-16.13v23.18c0,3.29-2.67,5.96-5.97,5.96h-11.37c-3.29,0-5.97-2.67-5.97-5.96v-7.05"/></svg>